<svg xmlns="http://www.w3.org/2000/svg" viewBox="0 0 64 64">
  <defs>
    <linearGradient id="bg" x1="10" y1="8" x2="54" y2="58" gradientUnits="userSpaceOnUse">
      <stop stop-color="#ffffff"/>
      <stop offset="1" stop-color="#e8f1ff"/>
    </linearGradient>
    <linearGradient id="mark" x1="20" y1="18" x2="45" y2="47" gradientUnits="userSpaceOnUse">
      <stop stop-color="#5aa7ff"/>
      <stop offset="1" stop-color="#2563eb"/>
    </linearGradient>
    <filter id="softShadow" x="-20%" y="-20%" width="140%" height="140%">
      <feDropShadow dx="4" dy="5" stdDeviation="4" flood-color="#31363f" flood-opacity="0.18"/>
      <feDropShadow dx="-3" dy="-3" stdDeviation="3" flood-color="#ffffff" flood-opacity="0.9"/>
    </filter>
  </defs>
  <rect x="8" y="8" width="48" height="48" rx="16" fill="url(#bg)" filter="url(#softShadow)"/>
  <path d="M20 33.5c0-8.1 5.7-14.3 13.5-14.3 5.1 0 8.8 2.3 11.3 5.7l-5.1 3.7c-1.5-2-3.3-3.1-6-3.1-4.1 0-6.9 3.3-6.9 8s2.8 8 7 8c2.8 0 4.8-1.1 6.3-3.3l5.1 3.5c-2.5 3.7-6.4 6.1-11.7 6.1C25.7 47.8 20 41.6 20 33.5Z" fill="url(#mark)"/>
  <circle cx="43.5" cy="20.5" r="3.5" fill="#2563eb"/>
</svg>
